<svg width="440" height="340" viewBox="0 0 440 340" fill="none" xmlns="http://www.w3.org/2000/svg">
<rect width="440" height="340" fill="white"/>
<path d="M72.1534 261.234C74.3707 261.234 75.8915 260.686 76.7166 259.59H76.9226L77 265.282C76.1581 266.084 74.5939 266.616 72.3081 266.877C71.6894 266.959 70.9159 267 69.988 267C69.0769 267 68.0802 266.837 66.9972 266.509C65.9317 266.182 65.0209 265.651 64.2646 264.914C62.7005 263.394 61.9187 261.013 61.9187 257.774V246.636H58.0258C58.0086 246.161 58 245.679 58 245.188V241.41C58 241.132 58.0086 240.992 58.0258 240.992H61.9187V234H68.2346V240.992H75.3244V246.636H68.2346V256.646C68.2346 259.214 68.9824 260.678 70.4777 261.038C70.9589 261.168 71.5174 261.234 72.1534 261.234Z" fill="#56637F"/>
<path d="M86.436 264.265C86.436 265.665 86.4711 266.577 86.5412 267H80V241.488H86.436V243.368C87.9247 241.79 89.4832 241 91.1121 241C92.7582 241 94.0541 241.188 95 241.562L94.5269 248.129L94.4218 248.202C93.8091 247.193 92.5391 246.689 90.613 246.689C89.8774 246.689 89.1243 246.924 88.3537 247.396C87.6006 247.852 86.9614 248.463 86.436 249.227V264.265Z" fill="#56637F"/>
<path d="M115.328 264.925C113.015 266.15 110.92 266.761 109.047 266.761C107.173 266.761 105.568 266.594 104.232 266.26C102.896 265.91 101.764 265.402 100.835 264.734C98.9452 263.382 98 261.426 98 258.866C98 256.577 99.1571 254.668 101.471 253.141C103.98 251.487 107.385 250.661 111.686 250.661L112.664 250.685C112.859 250.701 113.08 250.716 113.323 250.732C113.568 250.732 113.788 250.748 113.984 250.78C113.853 248.236 112.729 246.749 110.611 246.319C109.91 246.176 109.161 246.105 108.363 246.105C107.58 246.105 106.806 246.176 106.041 246.319C105.291 246.447 104.558 246.622 103.841 246.844C102.261 247.337 101.128 247.902 100.444 248.538L100.371 248.49L99.6377 243.219C102.521 241.74 105.674 241 109.095 241C114.407 241 117.804 242.869 119.287 246.606C119.759 247.799 119.996 249.142 119.996 250.637V259.272C119.996 261.116 120.664 262.372 122 263.041L117.576 267C116.648 266.523 115.898 265.831 115.328 264.925ZM114.008 255.073C113.568 254.994 113.112 254.954 112.64 254.954H111.662C108.061 254.954 105.772 255.733 104.794 257.292C104.501 257.753 104.355 258.238 104.355 258.747C104.355 259.256 104.444 259.709 104.623 260.107C104.819 260.488 105.136 260.806 105.576 261.06C106.424 261.538 107.678 261.776 109.34 261.776C111.018 261.776 112.582 261.386 114.032 260.608C114.016 260.432 114.008 260.25 114.008 260.059V255.073Z" fill="#56637F"/>
<path d="M144.252 265.255C142.151 266.419 140.051 267 137.951 267C135.85 267 134.014 266.672 132.443 266.017C130.872 265.361 129.532 264.46 128.424 263.313C126.141 260.953 125 257.887 125 254.118C125 250.217 126.323 246.972 128.97 244.382C131.632 241.76 135.04 240.449 139.191 240.449C140.465 240.449 141.713 240.612 142.937 240.941V230H149.015V256.281C149.015 258.461 149.114 259.887 149.313 260.559C149.528 261.231 149.759 261.723 150.007 262.034C150.272 262.346 150.603 262.641 151 262.919L146.336 267C145.476 266.541 144.781 265.959 144.252 265.255ZM139.117 261.346C140.506 261.346 141.779 261.083 142.937 260.559V246.939C141.779 246.464 140.522 246.226 139.166 246.226C137.81 246.226 136.644 246.406 135.668 246.767C134.709 247.127 133.882 247.627 133.187 248.267C131.732 249.611 131.004 251.356 131.004 253.503C131.004 255.847 131.666 257.716 132.989 259.109C134.411 260.6 136.453 261.346 139.117 261.346Z" fill="#56637F"/>
<path d="M156 254.265C156 252.387 156.324 250.646 156.972 249.041C157.619 247.436 158.535 246.032 159.715 244.828C162.239 242.276 165.54 241 169.618 241C173.064 241 175.829 242.132 177.918 244.395C179.973 246.577 181 249.322 181 252.628C181 253.896 180.903 254.762 180.708 255.228C179.089 255.677 175.798 255.902 170.829 255.902H162.286C162.706 257.62 163.687 258.959 165.225 259.922C166.76 260.869 168.759 261.343 171.218 261.343C173.79 261.343 176 260.885 177.843 259.97C178.329 259.73 178.693 259.505 178.936 259.297C178.905 259.97 178.864 260.661 178.814 261.367L178.547 265.122C177.317 265.957 175.328 266.534 172.579 266.856C171.769 266.952 170.991 267 170.247 267C166.137 267 162.74 265.812 160.054 263.437C157.352 261.046 156 257.988 156 254.265ZM174.543 251.232C173.88 247.781 171.987 246.056 168.865 246.056C166.405 246.056 164.537 247.107 163.257 249.21C162.868 249.852 162.569 250.558 162.361 251.328C162.747 251.344 163.226 251.36 163.793 251.376H165.586C166.187 251.392 166.76 251.4 167.311 251.4H168.693C169.518 251.4 170.328 251.392 171.122 251.376L173.111 251.304C173.647 251.288 174.123 251.264 174.543 251.232Z" fill="#56637F"/>
<path d="M331 267C331.144 265.922 331.215 264.967 331.215 264.136C331.215 263.306 331.206 262.74 331.19 262.439C331.19 262.122 331.184 261.812 331.166 261.511C331.15 261.211 331.135 260.928 331.12 260.663L331.046 260H338C337.954 260.672 337.929 261.22 337.929 261.644L337.88 262.758C337.88 263.093 337.88 263.73 337.88 264.667C337.88 265.586 337.92 266.364 338 267H331Z" fill="#56637F"/>
<path d="M188 258C188.141 256.922 188.21 255.967 188.21 255.136C188.21 254.306 188.201 253.74 188.186 253.439C188.186 253.122 188.18 252.812 188.162 252.511C188.147 252.211 188.132 251.928 188.117 251.663L188.045 251H204C203.955 251.672 203.931 252.22 203.931 252.644L203.883 253.758C203.883 254.093 203.883 254.73 203.883 255.667C203.883 256.586 203.922 257.364 204 258H188Z" fill="#56637F"/>
<path d="M349.922 264.213C349.922 265.64 349.947 266.568 350 267H345V241H349.922V264.213Z" fill="#56637F"/>
<path d="M355 254.193C355 252.427 355.315 250.742 355.939 249.137C356.58 247.516 357.494 246.104 358.677 244.9C361.263 242.3 364.619 241 368.742 241C372.85 241 376.111 242.228 378.527 244.684C380.843 247.027 382 250.068 382 253.807C382 257.547 380.81 260.645 378.426 263.1C375.909 265.7 372.57 267 368.414 267C364.118 267 360.755 265.724 358.323 263.172C356.108 260.845 355 257.852 355 254.193ZM361.162 254.048C361.162 255.059 361.341 256.039 361.695 256.985C362.05 257.932 362.557 258.743 363.214 259.417C364.619 260.877 366.459 261.608 368.742 261.608C370.856 261.608 372.521 260.893 373.737 259.465C374.918 258.085 375.509 256.287 375.509 254.072C375.509 251.825 374.901 250.012 373.685 248.632C372.384 247.155 370.599 246.417 368.336 246.417C366.037 246.417 364.239 247.204 362.937 248.776C361.754 250.221 361.162 251.978 361.162 254.048Z" fill="#56637F"/>
<path d="M217.165 259.821C217.165 263.459 217.231 265.796 217.359 266.831H211V241.485H217.165V243.668C219.391 241.889 221.674 241 224.015 241C226.776 241 228.783 242.189 230.033 244.566C231.284 243.288 232.325 242.447 233.154 242.043C234.536 241.348 235.918 241 237.296 241C238.694 241 239.882 241.235 240.857 241.704C241.83 242.172 242.636 242.835 243.267 243.692C244.552 245.422 245.193 247.799 245.193 250.823V260.476C245.193 263.208 245.234 264.849 245.315 265.399C245.397 265.949 245.503 266.305 245.634 266.466C245.778 266.628 245.9 266.774 246 266.903L245.95 267C244.649 266.887 243.693 266.831 243.074 266.831H241.245C240.645 266.831 239.907 266.855 239.028 266.903V253.782C239.028 249.998 238.444 247.751 237.274 247.039C236.884 246.813 236.421 246.7 235.883 246.7C235.364 246.7 234.902 246.764 234.495 246.894C234.089 247.007 233.707 247.201 233.351 247.476C232.747 247.913 232.066 248.77 231.303 250.047C231.318 250.176 231.325 250.305 231.325 250.435C231.325 250.564 231.325 252.699 231.325 256.838C231.325 260.977 231.425 264.308 231.619 266.831C230.237 266.831 229.058 266.831 228.086 266.831C227.126 266.831 226.207 266.855 225.332 266.903V253.757C225.332 251.122 225.169 249.408 224.844 248.616C224.534 247.824 224.2 247.306 223.843 247.064C223.487 246.821 223.046 246.7 222.527 246.7C220.383 246.7 218.594 247.727 217.165 249.78V259.821Z" fill="#11A9FF"/>
<path d="M269.048 264.925C266.638 266.15 264.457 266.761 262.507 266.761C260.555 266.761 258.883 266.595 257.492 266.26C256.101 265.91 254.922 265.402 253.952 264.734C251.983 263.382 251 261.426 251 258.866C251 256.577 252.205 254.668 254.615 253.141C257.227 251.487 260.777 250.661 265.257 250.661L266.276 250.685C266.478 250.701 266.707 250.716 266.961 250.732C267.216 250.732 267.445 250.748 267.647 250.78C267.513 248.236 266.341 246.749 264.137 246.319C263.405 246.176 262.625 246.105 261.792 246.105C260.979 246.105 260.173 246.176 259.376 246.319C258.596 246.447 257.831 246.622 257.084 246.844C255.438 247.337 254.259 247.902 253.547 248.538L253.469 248.49L252.705 243.219C255.709 241.74 258.994 241 262.556 241C268.092 241 271.628 242.869 273.172 246.606C273.666 247.799 273.91 249.142 273.91 250.637V259.272C273.91 261.116 274.606 262.372 276 263.041L271.389 267C270.423 266.523 269.642 265.831 269.048 264.925ZM267.673 255.073C267.216 254.994 266.739 254.954 266.25 254.954H265.231C261.479 254.954 259.095 255.733 258.076 257.292C257.773 257.753 257.619 258.238 257.619 258.747C257.619 259.256 257.714 259.709 257.9 260.107C258.103 260.488 258.432 260.806 258.893 261.06C259.774 261.538 261.081 261.776 262.811 261.776C264.562 261.776 266.191 261.386 267.7 260.608C267.683 260.432 267.673 260.25 267.673 260.059V255.073Z" fill="#11A9FF"/>
<path d="M293.41 261.234C295.509 261.234 296.95 260.686 297.731 259.59H297.928L298 265.282C297.204 266.084 295.722 266.616 293.554 266.877C292.968 266.959 292.235 267 291.357 267C290.493 267 289.55 266.837 288.522 266.509C287.513 266.182 286.651 265.651 285.934 264.914C284.452 263.394 283.713 261.013 283.713 257.774V246.636H280.022C280.006 246.161 280 245.679 280 245.188V241.41C280 241.132 280.006 240.992 280.022 240.992H283.713V234H289.697V240.992H296.414V246.636H289.697V256.646C289.697 259.214 290.405 260.678 291.821 261.038C292.275 261.168 292.805 261.234 293.41 261.234Z" fill="#11A9FF"/>
<path d="M302 254.265C302 252.387 302.324 250.646 302.971 249.041C303.619 247.436 304.531 246.032 305.715 244.828C308.237 242.276 311.54 241 315.616 241C319.063 241 321.831 242.132 323.92 244.395C325.973 246.577 327 249.322 327 252.628C327 253.896 326.903 254.762 326.711 255.228C325.091 255.677 321.8 255.902 316.831 255.902H308.287C308.707 257.62 309.688 258.959 311.223 259.922C312.761 260.869 314.76 261.343 317.22 261.343C319.792 261.343 322.003 260.885 323.846 259.97C324.331 259.73 324.696 259.505 324.938 259.297C324.908 259.97 324.867 260.661 324.817 261.367L324.549 265.122C323.319 265.957 321.33 266.534 318.578 266.856C317.768 266.952 316.993 267 316.248 267C312.139 267 308.738 265.812 306.054 263.437C303.351 261.046 302 257.988 302 254.265ZM320.545 251.232C319.882 247.781 317.989 246.056 314.866 246.056C312.406 246.056 310.535 247.107 309.258 249.21C308.869 249.852 308.57 250.558 308.358 251.328C308.747 251.344 309.224 251.36 309.791 251.376H311.587C312.185 251.392 312.761 251.4 313.312 251.4H314.695C315.52 251.4 316.329 251.392 317.124 251.376L319.113 251.304C319.646 251.288 320.125 251.264 320.545 251.232Z" fill="#11A9FF"/>
<path d="M345.096 232C344.961 233.549 344.969 235.215 345.116 237L350 236.852L349.909 234.438C349.89 233.678 349.892 232.886 349.914 232.063L345.096 232Z" fill="#56637F"/>
<path d="M322 171.408L249.471 203L201 152.102L273.168 117L322 171.408Z" fill="#0B7CBB"/>
<path d="M214 195.824L164.116 203L118 155.223L174.3 147L214 195.824Z" fill="#0B7CBB"/>
<path d="M140.25 95.9785C147.623 82.4332 161.825 74 177.264 74H214L155.75 181.021C148.377 194.567 134.175 203 118.735 203H82L140.25 95.9785Z" fill="#56637F"/>
<path d="M100.8 168.5C108.197 155.135 122.649 147 138.14 147H174.3L155.999 181.316C148.602 194.68 134.351 203 118.86 203H82L100.8 168.5Z" fill="#11A9FF"/>
<path d="M199.5 138.525C206.885 125.186 220.953 117 236.31 117H273L237.471 181.369C230.086 194.708 215.949 203 200.591 203H164L199.5 138.525Z" fill="#11A9FF"/>
<path d="M63.6002 94.3912C71.2487 81.7405 85.0247 74 99.8907 74H138L133.4 81.6088C125.751 94.2595 111.976 102 97.1096 102H59L63.6002 94.3912Z" fill="#56637F"/>
<path d="M223.6 94.3912C231.249 81.7405 245.024 74 259.89 74H298L293.4 81.6088C285.751 94.2595 271.976 102 257.11 102H219L223.6 94.3912Z" fill="#56637F"/>
<path d="M308.217 95.9782C315.593 82.4331 329.802 74 345.248 74H382L323.724 181.02C316.348 194.565 302.139 202.998 286.693 202.998L250 203L308.217 95.9782Z" fill="#11A9FF"/>
</svg>
